<svg width="220" height="220" viewBox="0 0 220 220" fill="none" xmlns="http://www.w3.org/2000/svg">
<rect x="11" y="11" width="198" height="198" rx="99" fill="white"/>
<rect x="11" y="11" width="198" height="198" rx="99" stroke="#E6E9F1" stroke-width="2"/>
<path d="M74.205 105V90.3H76.305V103.173H84.264V105H74.205ZM90.5622 105.126C89.3722 105.126 88.3222 104.881 87.4122 104.391C86.5162 103.901 85.8162 103.229 85.3122 102.375C84.8222 101.521 84.5772 100.541 84.5772 99.435C84.5772 98.329 84.8152 97.349 85.2912 96.495C85.7812 95.641 86.4462 94.976 87.2862 94.5C88.1402 94.01 89.0992 93.765 90.1632 93.765C91.2412 93.765 92.1932 94.003 93.0192 94.479C93.8452 94.955 94.4892 95.627 94.9512 96.495C95.4272 97.349 95.6652 98.35 95.6652 99.498C95.6652 99.582 95.6582 99.68 95.6442 99.792C95.6442 99.904 95.6372 100.009 95.6232 100.107H86.1522V98.658H94.5732L93.7542 99.162C93.7682 98.448 93.6212 97.811 93.3132 97.251C93.0052 96.691 92.5782 96.257 92.0322 95.949C91.5002 95.627 90.8772 95.466 90.1632 95.466C89.4632 95.466 88.8402 95.627 88.2942 95.949C87.7482 96.257 87.3212 96.698 87.0132 97.272C86.7052 97.832 86.5512 98.476 86.5512 99.204V99.54C86.5512 100.282 86.7192 100.947 87.0552 101.535C87.4052 102.109 87.8882 102.557 88.5042 102.879C89.1202 103.201 89.8272 103.362 90.6252 103.362C91.2832 103.362 91.8782 103.25 92.4102 103.026C92.9562 102.802 93.4322 102.466 93.8382 102.018L94.9512 103.32C94.4472 103.908 93.8172 104.356 93.0612 104.664C92.3192 104.972 91.4862 105.126 90.5622 105.126ZM104.436 105V102.648L104.331 102.207V98.196C104.331 97.342 104.079 96.684 103.575 96.222C103.085 95.746 102.343 95.508 101.349 95.508C100.691 95.508 100.047 95.62 99.417 95.844C98.787 96.054 98.255 96.341 97.821 96.705L96.981 95.193C97.555 94.731 98.241 94.381 99.039 94.143C99.851 93.891 100.698 93.765 101.58 93.765C103.106 93.765 104.282 94.136 105.108 94.878C105.934 95.62 106.347 96.754 106.347 98.28V105H104.436ZM100.782 105.126C99.956 105.126 99.228 104.986 98.598 104.706C97.982 104.426 97.506 104.041 97.17 103.551C96.834 103.047 96.666 102.48 96.666 101.85C96.666 101.248 96.806 100.702 97.086 100.212C97.38 99.722 97.849 99.33 98.493 99.036C99.151 98.742 100.033 98.595 101.139 98.595H104.667V100.044H101.223C100.215 100.044 99.536 100.212 99.186 100.548C98.836 100.884 98.661 101.29 98.661 101.766C98.661 102.312 98.878 102.753 99.312 103.089C99.746 103.411 100.348 103.572 101.118 103.572C101.874 103.572 102.532 103.404 103.092 103.068C103.666 102.732 104.079 102.242 104.331 101.598L104.73 102.984C104.464 103.642 103.995 104.167 103.323 104.559C102.651 104.937 101.804 105.126 100.782 105.126ZM114.047 105.126C112.969 105.126 112.003 104.888 111.149 104.412C110.309 103.936 109.644 103.271 109.154 102.417C108.664 101.563 108.419 100.569 108.419 99.435C108.419 98.301 108.664 97.314 109.154 96.474C109.644 95.62 110.309 94.955 111.149 94.479C112.003 94.003 112.969 93.765 114.047 93.765C114.985 93.765 115.832 93.975 116.588 94.395C117.344 94.815 117.946 95.445 118.394 96.285C118.856 97.125 119.087 98.175 119.087 99.435C119.087 100.695 118.863 101.745 118.415 102.585C117.981 103.425 117.386 104.062 116.63 104.496C115.874 104.916 115.013 105.126 114.047 105.126ZM114.215 103.362C114.915 103.362 115.545 103.201 116.105 102.879C116.679 102.557 117.127 102.102 117.449 101.514C117.785 100.912 117.953 100.219 117.953 99.435C117.953 98.637 117.785 97.951 117.449 97.377C117.127 96.789 116.679 96.334 116.105 96.012C115.545 95.69 114.915 95.529 114.215 95.529C113.501 95.529 112.864 95.69 112.304 96.012C111.744 96.334 111.296 96.789 110.96 97.377C110.624 97.951 110.456 98.637 110.456 99.435C110.456 100.219 110.624 100.912 110.96 101.514C111.296 102.102 111.744 102.557 112.304 102.879C112.864 103.201 113.501 103.362 114.215 103.362ZM118.016 105V101.997L118.142 99.414L117.932 96.831V89.418H119.948V105H118.016ZM123.132 105V93.87H125.148V105H123.132ZM124.14 91.728C123.748 91.728 123.419 91.602 123.153 91.35C122.901 91.098 122.775 90.79 122.775 90.426C122.775 90.048 122.901 89.733 123.153 89.481C123.419 89.229 123.748 89.103 124.14 89.103C124.532 89.103 124.854 89.229 125.106 89.481C125.372 89.719 125.505 90.02 125.505 90.384C125.505 90.762 125.379 91.084 125.127 91.35C124.875 91.602 124.546 91.728 124.14 91.728ZM134.31 93.765C135.22 93.765 136.018 93.94 136.704 94.29C137.404 94.64 137.95 95.172 138.342 95.886C138.734 96.6 138.93 97.503 138.93 98.595V105H136.914V98.826C136.914 97.748 136.648 96.936 136.116 96.39C135.598 95.844 134.863 95.571 133.911 95.571C133.197 95.571 132.574 95.711 132.042 95.991C131.51 96.271 131.097 96.684 130.803 97.23C130.523 97.776 130.383 98.455 130.383 99.267V105H128.367V93.87H130.299V96.873L129.984 96.075C130.348 95.347 130.908 94.78 131.664 94.374C132.42 93.968 133.302 93.765 134.31 93.765ZM146.903 109.2C145.881 109.2 144.887 109.053 143.921 108.759C142.969 108.479 142.192 108.073 141.59 107.541L142.556 105.987C143.074 106.435 143.711 106.785 144.467 107.037C145.223 107.303 146.014 107.436 146.84 107.436C148.156 107.436 149.122 107.128 149.738 106.512C150.354 105.896 150.662 104.958 150.662 103.698V101.346L150.872 99.141L150.767 96.915V93.87H152.678V103.488C152.678 105.448 152.188 106.89 151.208 107.814C150.228 108.738 148.793 109.2 146.903 109.2ZM146.651 104.538C145.573 104.538 144.607 104.314 143.753 103.866C142.913 103.404 142.241 102.767 141.737 101.955C141.247 101.143 141.002 100.205 141.002 99.141C141.002 98.063 141.247 97.125 141.737 96.327C142.241 95.515 142.913 94.885 143.753 94.437C144.607 93.989 145.573 93.765 146.651 93.765C147.603 93.765 148.471 93.961 149.255 94.353C150.039 94.731 150.662 95.319 151.124 96.117C151.6 96.915 151.838 97.923 151.838 99.141C151.838 100.345 151.6 101.346 151.124 102.144C150.662 102.942 150.039 103.544 149.255 103.95C148.471 104.342 147.603 104.538 146.651 104.538ZM146.882 102.774C147.624 102.774 148.282 102.62 148.856 102.312C149.43 102.004 149.878 101.577 150.2 101.031C150.536 100.485 150.704 99.855 150.704 99.141C150.704 98.427 150.536 97.797 150.2 97.251C149.878 96.705 149.43 96.285 148.856 95.991C148.282 95.683 147.624 95.529 146.882 95.529C146.14 95.529 145.475 95.683 144.887 95.991C144.313 96.285 143.858 96.705 143.522 97.251C143.2 97.797 143.039 98.427 143.039 99.141C143.039 99.855 143.2 100.485 143.522 101.031C143.858 101.577 144.313 102.004 144.887 102.312C145.475 102.62 146.14 102.774 146.882 102.774ZM74.205 131V116.3H76.305V131H74.205ZM82.995 131V118.127H77.955V116.3H90.114V118.127H85.074V131H82.995ZM103.354 131.168C102.234 131.168 101.198 130.986 100.246 130.622C99.3078 130.244 98.4888 129.719 97.7888 129.047C97.1028 128.361 96.5638 127.563 96.1718 126.653C95.7798 125.743 95.5838 124.742 95.5838 123.65C95.5838 122.558 95.7798 121.557 96.1718 120.647C96.5638 119.737 97.1098 118.946 97.8098 118.274C98.5098 117.588 99.3288 117.063 100.267 116.699C101.219 116.321 102.255 116.132 103.375 116.132C104.509 116.132 105.552 116.328 106.504 116.72C107.47 117.098 108.289 117.665 108.961 118.421L107.596 119.744C107.036 119.156 106.406 118.722 105.706 118.442C105.006 118.148 104.257 118.001 103.459 118.001C102.633 118.001 101.863 118.141 101.149 118.421C100.449 118.701 99.8398 119.093 99.3218 119.597C98.8038 120.101 98.3978 120.703 98.1038 121.403C97.8238 122.089 97.6838 122.838 97.6838 123.65C97.6838 124.462 97.8238 125.218 98.1038 125.918C98.3978 126.604 98.8038 127.199 99.3218 127.703C99.8398 128.207 100.449 128.599 101.149 128.879C101.863 129.159 102.633 129.299 103.459 129.299C104.257 129.299 105.006 129.159 105.706 128.879C106.406 128.585 107.036 128.137 107.596 127.535L108.961 128.858C108.289 129.614 107.47 130.188 106.504 130.58C105.552 130.972 104.502 131.168 103.354 131.168ZM115.328 131.126C114.208 131.126 113.214 130.881 112.346 130.391C111.478 129.901 110.792 129.229 110.288 128.375C109.784 127.507 109.532 126.527 109.532 125.435C109.532 124.329 109.784 123.349 110.288 122.495C110.792 121.641 111.478 120.976 112.346 120.5C113.214 120.01 114.208 119.765 115.328 119.765C116.434 119.765 117.421 120.01 118.289 120.5C119.171 120.976 119.857 121.641 120.347 122.495C120.851 123.335 121.103 124.315 121.103 125.435C121.103 126.541 120.851 127.521 120.347 128.375C119.857 129.229 119.171 129.901 118.289 130.391C117.421 130.881 116.434 131.126 115.328 131.126ZM115.328 129.362C116.042 129.362 116.679 129.201 117.239 128.879C117.813 128.557 118.261 128.102 118.583 127.514C118.905 126.912 119.066 126.219 119.066 125.435C119.066 124.637 118.905 123.951 118.583 123.377C118.261 122.789 117.813 122.334 117.239 122.012C116.679 121.69 116.042 121.529 115.328 121.529C114.614 121.529 113.977 121.69 113.417 122.012C112.857 122.334 112.409 122.789 112.073 123.377C111.737 123.951 111.569 124.637 111.569 125.435C111.569 126.219 111.737 126.912 112.073 127.514C112.409 128.102 112.857 128.557 113.417 128.879C113.977 129.201 114.614 129.362 115.328 129.362ZM137.184 119.765C138.08 119.765 138.871 119.94 139.557 120.29C140.243 120.64 140.775 121.172 141.153 121.886C141.545 122.6 141.741 123.503 141.741 124.595V131H139.725V124.826C139.725 123.748 139.473 122.936 138.969 122.39C138.465 121.844 137.758 121.571 136.848 121.571C136.176 121.571 135.588 121.711 135.084 121.991C134.58 122.271 134.188 122.684 133.908 123.23C133.642 123.776 133.509 124.455 133.509 125.267V131H131.493V124.826C131.493 123.748 131.241 122.936 130.737 122.39C130.247 121.844 129.54 121.571 128.616 121.571C127.958 121.571 127.377 121.711 126.873 121.991C126.369 122.271 125.977 122.684 125.697 123.23C125.417 123.776 125.277 124.455 125.277 125.267V131H123.261V119.87H125.193V122.831L124.878 122.075C125.228 121.347 125.767 120.78 126.495 120.374C127.223 119.968 128.07 119.765 129.036 119.765C130.1 119.765 131.017 120.031 131.787 120.563C132.557 121.081 133.061 121.872 133.299 122.936L132.48 122.6C132.816 121.746 133.404 121.06 134.244 120.542C135.084 120.024 136.064 119.765 137.184 119.765ZM150.721 131.126C149.797 131.126 148.95 130.916 148.18 130.496C147.424 130.062 146.815 129.425 146.353 128.585C145.905 127.745 145.681 126.695 145.681 125.435C145.681 124.175 145.898 123.125 146.332 122.285C146.78 121.445 147.382 120.815 148.138 120.395C148.908 119.975 149.769 119.765 150.721 119.765C151.813 119.765 152.779 120.003 153.619 120.479C154.459 120.955 155.124 121.62 155.614 122.474C156.104 123.314 156.349 124.301 156.349 125.435C156.349 126.569 156.104 127.563 155.614 128.417C155.124 129.271 154.459 129.936 153.619 130.412C152.779 130.888 151.813 131.126 150.721 131.126ZM144.82 135.074V119.87H146.752V122.873L146.626 125.456L146.836 128.039V135.074H144.82ZM150.553 129.362C151.267 129.362 151.904 129.201 152.464 128.879C153.038 128.557 153.486 128.102 153.808 127.514C154.144 126.912 154.312 126.219 154.312 125.435C154.312 124.637 154.144 123.951 153.808 123.377C153.486 122.789 153.038 122.334 152.464 122.012C151.904 121.69 151.267 121.529 150.553 121.529C149.853 121.529 149.216 121.69 148.642 122.012C148.082 122.334 147.634 122.789 147.298 123.377C146.976 123.951 146.815 124.637 146.815 125.435C146.815 126.219 146.976 126.912 147.298 127.514C147.634 128.102 148.082 128.557 148.642 128.879C149.216 129.201 149.853 129.362 150.553 129.362ZM165.311 131V128.648L165.206 128.207V124.196C165.206 123.342 164.954 122.684 164.45 122.222C163.96 121.746 163.218 121.508 162.224 121.508C161.566 121.508 160.922 121.62 160.292 121.844C159.662 122.054 159.13 122.341 158.696 122.705L157.856 121.193C158.43 120.731 159.116 120.381 159.914 120.143C160.726 119.891 161.573 119.765 162.455 119.765C163.981 119.765 165.157 120.136 165.983 120.878C166.809 121.62 167.222 122.754 167.222 124.28V131H165.311ZM161.657 131.126C160.831 131.126 160.103 130.986 159.473 130.706C158.857 130.426 158.381 130.041 158.045 129.551C157.709 129.047 157.541 128.48 157.541 127.85C157.541 127.248 157.681 126.702 157.961 126.212C158.255 125.722 158.724 125.33 159.368 125.036C160.026 124.742 160.908 124.595 162.014 124.595H165.542V126.044H162.098C161.09 126.044 160.411 126.212 160.061 126.548C159.711 126.884 159.536 127.29 159.536 127.766C159.536 128.312 159.753 128.753 160.187 129.089C160.621 129.411 161.223 129.572 161.993 129.572C162.749 129.572 163.407 129.404 163.967 129.068C164.541 128.732 164.954 128.242 165.206 127.598L165.605 128.984C165.339 129.642 164.87 130.167 164.198 130.559C163.526 130.937 162.679 131.126 161.657 131.126ZM176.266 119.765C177.176 119.765 177.974 119.94 178.66 120.29C179.36 120.64 179.906 121.172 180.298 121.886C180.69 122.6 180.886 123.503 180.886 124.595V131H178.87V124.826C178.87 123.748 178.604 122.936 178.072 122.39C177.554 121.844 176.819 121.571 175.867 121.571C175.153 121.571 174.53 121.711 173.998 121.991C173.466 122.271 173.053 122.684 172.759 123.23C172.479 123.776 172.339 124.455 172.339 125.267V131H170.323V119.87H172.255V122.873L171.94 122.075C172.304 121.347 172.864 120.78 173.62 120.374C174.376 119.968 175.258 119.765 176.266 119.765ZM184.265 135.2C183.733 135.2 183.215 135.109 182.711 134.927C182.207 134.759 181.773 134.507 181.409 134.171L182.27 132.659C182.55 132.925 182.858 133.128 183.194 133.268C183.53 133.408 183.887 133.478 184.265 133.478C184.755 133.478 185.161 133.352 185.483 133.1C185.805 132.848 186.106 132.4 186.386 131.756L187.079 130.223L187.289 129.971L191.657 119.87H193.631L188.234 132.113C187.912 132.897 187.548 133.513 187.142 133.961C186.75 134.409 186.316 134.724 185.84 134.906C185.364 135.102 184.839 135.2 184.265 135.2ZM186.911 131.357L181.829 119.87H183.929L188.255 129.782L186.911 131.357Z" fill="#2B3F6C"/>
<path d="M58.475 100.047V119.951M53.9514 95.5232H34.0473M53.9514 124.474H34.0473M29.5237 100.047V119.951" stroke="#2B3F6C" stroke-width="2"/>
<circle cx="58.4751" cy="95.5238" r="4.52381" stroke="#2B3F6C" stroke-width="2"/>
<circle cx="29.5238" cy="95.5238" r="4.52381" stroke="#2B3F6C" stroke-width="2"/>
<circle cx="58.4751" cy="124.475" r="4.52381" stroke="#2B3F6C" stroke-width="2"/>
<circle cx="29.5238" cy="124.475" r="4.52381" stroke="#2B3F6C" stroke-width="2"/>
</svg>
