<svg width="220" height="220" viewBox="0 0 220 220" fill="none" xmlns="http://www.w3.org/2000/svg">
<rect x="11" y="11" width="198" height="198" rx="99" fill="white"/>
<rect x="11" y="11" width="198" height="198" rx="99" stroke="#E6E9F1" stroke-width="2"/>
<path d="M68 83.8571L82 83.8571L96 110L124 49L138 83.8571H152" stroke="#FF4B4B" stroke-width="8" stroke-linecap="round" stroke-linejoin="round"/>
<path d="M58.4742 146V135.017H61.2676V139.325H65.6442V135.017H68.43V146H65.6442V141.57H61.2676V146H58.4742ZM70.5502 146V135.017H78.0779V137.262H73.3436V139.454H77.7963V141.509H73.3436V143.755H78.0779V146H70.5502ZM79.2543 146L82.9459 135.017H86.3634L90.055 146H87.1246L86.4472 143.587H82.8622L82.1847 146H79.2543ZM84.5823 137.437L83.4254 141.578H85.8839L84.727 137.437H84.5823ZM91.4293 146V135.017H94.2227V143.755H98.8885V146H91.4293ZM101.58 146V137.262H98.4133V135.017H107.539V137.262H104.365V146H101.58ZM109.066 146V135.017H111.859V139.325H116.236V135.017H119.022V146H116.236V141.57H111.859V146H109.066ZM125.937 146.297C122.649 146.297 120.624 144.09 120.624 140.512V140.497C120.624 136.92 122.641 134.72 125.937 134.72C128.7 134.72 130.717 136.493 130.877 138.921V139.058H128.19L128.183 138.99C128.023 137.841 127.14 137.034 125.937 137.034C124.407 137.034 123.471 138.343 123.471 140.489V140.505C123.471 142.666 124.407 143.983 125.945 143.983C127.147 143.983 127.992 143.229 128.183 142.095L128.198 142.012H130.885V142.133C130.702 144.584 128.753 146.297 125.937 146.297ZM131.338 146L135.029 135.017H138.447L142.139 146H139.208L138.531 143.587H134.946L134.268 146H131.338ZM136.666 137.437L135.509 141.578H137.967L136.811 137.437H136.666ZM143.513 146V135.017H148.285C150.987 135.017 152.441 136.372 152.441 138.64V138.655C152.441 139.995 151.764 141.22 150.576 141.745L152.768 146H149.632L147.752 142.156H146.306V146H143.513ZM146.306 140.246H147.973C148.978 140.246 149.594 139.644 149.594 138.693V138.678C149.594 137.749 148.963 137.125 147.958 137.125H146.306V140.246ZM154.204 146V135.017H161.731V137.262H156.997V139.454H161.45V141.509H156.997V143.755H161.731V146H154.204ZM74.432 166V155.017H78.5727C80.6354 155.017 82.0968 156.44 82.0968 158.526V158.541C82.0968 160.626 80.6354 162.08 78.5727 162.08H75.8021V166H74.432ZM78.2225 156.235H75.8021V160.862H78.2225C79.7905 160.862 80.6962 160.002 80.6962 158.556V158.541C80.6962 157.095 79.7905 156.235 78.2225 156.235ZM83.8745 166V155.017H88.0684C90.1844 155.017 91.5697 156.311 91.5697 158.282V158.297C91.5697 159.82 90.74 161.007 89.3623 161.441L91.9046 166H90.2985L87.9466 161.654H85.2445V166H83.8745ZM85.2445 160.436H87.9466C89.3547 160.436 90.1539 159.683 90.1539 158.343V158.328C90.1539 157.018 89.3014 156.235 87.8857 156.235H85.2445V160.436ZM98.2035 166.259C95.0523 166.259 93.1647 164.021 93.1647 160.512V160.497C93.1647 156.973 95.098 154.758 98.2035 154.758C101.324 154.758 103.242 156.98 103.242 160.497V160.512C103.242 164.013 101.339 166.259 98.2035 166.259ZM98.2035 164.995C100.456 164.995 101.842 163.229 101.842 160.512V160.497C101.842 157.757 100.449 156.021 98.2035 156.021C95.9657 156.021 94.5652 157.757 94.5652 160.497V160.512C94.5652 163.229 95.92 164.995 98.2035 164.995ZM107.943 166L103.893 155.017H105.332L108.559 164.227H108.681L111.908 155.017H113.347L109.298 166H107.943ZM114.805 166V155.017H116.175V166H114.805ZM118.508 166V155.017H122.276C125.534 155.017 127.459 157.049 127.459 160.497V160.512C127.459 163.968 125.541 166 122.276 166H118.508ZM119.878 164.767H122.185C124.636 164.767 126.059 163.199 126.059 160.527V160.512C126.059 157.833 124.62 156.25 122.185 156.25H119.878V164.767ZM129.367 166V155.017H136.171V156.25H130.737V159.774H135.89V160.992H130.737V164.767H136.171V166H129.367ZM138.185 166V155.017H142.379C144.495 155.017 145.88 156.311 145.88 158.282V158.297C145.88 159.82 145.05 161.007 143.673 161.441L146.215 166H144.609L142.257 161.654H139.555V166H138.185ZM139.555 160.436H142.257C143.665 160.436 144.464 159.683 144.464 158.343V158.328C144.464 157.018 143.612 156.235 142.196 156.235H139.555V160.436Z" fill="#FF4B4B"/>
</svg>
